<?xml version="1.0" encoding="utf-8"?>
<!-- Generator: Adobe Illustrator 24.3.0, SVG Export Plug-In . SVG Version: 6.00 Build 0)  -->
<svg version="1.1" id="Layer_1" focusable="false" xmlns="http://www.w3.org/2000/svg" xmlns:xlink="http://www.w3.org/1999/xlink"
	 x="0px" y="0px" viewBox="0 0 448 512" style="enable-background:new 0 0 448 512;" xml:space="preserve">
<style type="text/css">
	.st0{fill:#FFA500;}
	.st1{fill:#D4E0ED;}
</style>
<path class="st0" d="M96,288l99.4,205.7c7.3,15.8,26,22.7,41.8,15.4c6.8-3.1,12.3-8.6,15.4-15.4L352,288H96z"/>
<path class="st1" d="M416,208c0,26.5-21.5,48-48,48H80c-26.5,0-48-21.5-48-48s21.5-48,48-48h0.9c-1.3-10.9-1.3-21.9,0-32.8
	C90,48.1,161.4-8.6,240.4,0.5C319.4,9.6,376.1,81,367.1,160h0.9C394.5,160,416,181.5,416,208z"/>
</svg>
